<svg class="contacts--icon" width="44px" height="45px" version="1.1" id="Layer_1" xmlns="http://www.w3.org/2000/svg" xmlns:xlink="http://www.w3.org/1999/xlink" x="0px" y="0px" viewBox="0 0 44 45" style="enable-background:new 0 0 44 45;" xml:space="preserve">
			<style type="text/css">
				.st06{fill:#FFFFFF;}
				.st12{fill:none;stroke:#FFFFFF;stroke-width:2;stroke-linecap:round;stroke-linejoin:round;}
			</style>
			<g>
				<g id="Page-1_11_">
					<g id="Desktop_7_" transform="translate(-791.000000, -2804.000000)">
						<g id="Group-2_2_" transform="translate(-22.000000, 2678.000000)">
							<g id="Group-52" transform="translate(813.000000, 126.000000)">
								<g id="iconmonstr-facebook-5">
									<g id="Shape_3_">
										<path class="st06" d="M27.3,13.3v3.8h-2.2c-0.7,0-0.8,0.3-0.8,1v1.3h3L27,22.5h-2.7v9.2h-4.5v-9.2h-3v-3.1h3v-2.6
										c0-2.3,1.2-3.5,3.9-3.5H27.3 M27.3,11.3h-3.6c-3.8,0-5.9,2-5.9,5.5v0.6h-1c-1.1,0-2,0.9-2,2v3.1c0,1.1,0.9,2,2,2h1v7.2
										c0,1.1,0.9,2,2,2h4.5c1.1,0,2-0.9,2-2v-7.2H27c1,0,1.9-0.8,2-1.8l0.3-3.1c0-0.5-0.1-0.9-0.4-1.3c0.2-0.3,0.4-0.7,0.4-1.2
										v-3.8C29.3,12.2,28.4,11.3,27.3,11.3L27.3,11.3z"></path>
									</g>
								</g>
							</g>
						</g>
					</g>
				</g>
				<circle class="st12" cx="22" cy="22.5" r="19.2"></circle>
			</g>
		</svg>