<svg class="services--icon" width="88px" height="84px" version="1.1" id="Layer_1" xmlns="http://www.w3.org/2000/svg" xmlns:xlink="http://www.w3.org/1999/xlink" x="0px" y="0px" viewBox="0 0 88 89" style="enable-background:new 0 0 88 89;" xml:space="preserve">
		<style type="text/css">
			.st03{fill:none;stroke:#D2B271;stroke-width:1.806;stroke-linecap:round;stroke-linejoin:round;}
		</style>

		<g id="Page-1_25_">
			<g id="Desktop_15_" transform="translate(-856.000000, -1599.000000)">
				<g id="Group-54_1_" transform="translate(190.000000, 1327.000000)">
					<g id="Page-1_26_" transform="translate(668.000000, 272.000000)">
						<path id="Stroke-1_8_" class="st03" d="M31.6,72.9h21"></path>
						<path id="Stroke-2" class="st03" d="M21.6,76.9h39"></path>
						<g id="Group-24">
							<path id="Stroke-3_8_" class="st03" d="M71.2,85.9H14c-0.4,0-0.8-0.3-0.8-0.8v-3.7c0-0.4,0.3-0.8,0.8-0.8h57.1
							c0.4,0,0.8,0.3,0.8,0.8v3.7C71.9,85.6,71.6,85.9,71.2,85.9z"></path>
							<polyline id="Stroke-5_7_" class="st03" points="81.1,41.7 68.1,6.6 54.9,41.8 					"></polyline>
							<path id="Stroke-7_6_" class="st03" d="M59.3,42.1H84c0,0-5.2,10.1-15.9,10c-10.7-0.1-13.8-4.8-15.9-10h2.9"></path>
							<path id="Stroke-9_3_" class="st03" d="M24.7,42.1H0c0,0,5.2,10.1,15.9,10c10.7-0.1,13.8-4.8,15.9-10l-2.3,0.3"></path>
							<polyline id="Stroke-11_3_" class="st03" points="29.4,42.4 15.8,6.6 2.9,41.7 					"></polyline>
							<!-- <path id="Stroke-13_4_" class="st0" d="M46.4,7.2c0,2.5-2,4.5-4.5,4.5c-2.5,0-4.5-2-4.5-4.5c0-2.5,2-4.5,4.5-4.5
							C44.4,2.8,46.4,4.8,46.4,7.2z"></path> -->
							<path id="Stroke-15" class="st03" d="M15.8,6.6h21.6"></path>
							<path id="Stroke-17" class="st03" d="M68.1,6.6H46.4"></path>
							<g id="Group-21" transform="translate(42.142857, 0.000000)">
								<g id="Clip-20">
								</g>
							</g>
							<path id="Stroke-22" class="st03" d="M41.9,11.7v56.5"></path>
						</g>
					</g>
				</g>
			</g>
		</g>
	</svg>