<svg class="services--icon" width="85px" height="80px" viewBox="0 0 85 80" version="1.1" xmlns="http://www.w3.org/2000/svg" xmlns:xlink="http://www.w3.org/1999/xlink">
			<g id="Page-1" stroke="none" stroke-width="1" fill="none" fill-rule="evenodd">
				<g id="Desktop" transform="translate(-1142.000000, -1613.000000)" stroke="#DAB578" stroke-width="1.806">
					<g id="Group-54" transform="translate(190.000000, 1327.000000)">
						<g id="Page-1" transform="translate(953.000000, 287.000000)">
							<path d="M81.4353213,37.0333421 C82.2294258,36.1880343 82.1799268,34.8546993 81.3250094,34.0695209 L47.0540648,2.58897122 C46.1991474,1.80379283 44.7997417,1.80379283 43.9448242,2.58827204 L9.67600101,34.0240743 C8.82037647,34.8085535 8.77017041,36.1425877 9.56427483,36.9878955 L10.916303,38.4261074 C11.7104074,39.270716 13.0603142,39.3203577 13.9152316,38.5358785 L43.9441171,10.9966028 C44.7997417,10.2121235 46.1991474,10.2128227 47.0540648,10.9980011 L77.0850717,38.5813252 C77.9399891,39.3665036 79.2891887,39.317561 80.0832932,38.4722532 L81.4353213,37.0333421 Z M47.0526505,19.3853565 C46.1984403,18.5994789 44.8011559,18.5994789 43.9469456,19.3853565 L19.0185724,42.3219346 C18.1643621,43.1078122 17.4657199,44.6949493 17.4657199,45.847896 L17.4657199,69.902462 C17.4657199,71.0561079 18.4203423,72 19.587103,72 L37.1486198,72 L40.6701158,72 L44.1916118,72 L47.5617825,72 L50.7063794,72 L53.8509764,72 L71.4132003,72 C72.579961,72 73.5345834,71.0561079 73.5345834,69.902462 L73.5345834,45.847896 C73.5345834,44.6949493 72.8352341,43.1078122 71.9810238,42.3219346 L47.0526505,19.3853565 Z" id="Stroke-1"></path>
							<path d="M83,0 L0,78" id="Stroke-3"></path>
							<path d="M50.5058973,66 L41.4948285,66 C39.5728543,66 38,64.5116758 38,62.6936813 L38,50.3070055 C38,48.4883242 39.5728543,47 41.4948285,47 L50.5058973,47 C52.4278715,47 54,48.4883242 54,50.3070055 L54,62.6936813 C54,64.5116758 52.4278715,66 50.5058973,66 Z" id="Stroke-5"></path>
						</g>
					</g>
				</g>
			</g>
		</svg>