<svg class="services--icon" width="117px" height="69px" version="1.1" id="Layer_1" xmlns="http://www.w3.org/2000/svg" xmlns:xlink="http://www.w3.org/1999/xlink" x="0px" y="0px"
			viewBox="0 0 117.3 81" style="enable-background:new 0 0 117.3 81;" xml:space="preserve">
			<style type="text/css">
				.st010{fill:none;stroke:#DAB578;stroke-width:1.806;}
			</style>
			<g id="Page-1_1_">
				<g id="Desktop" transform="translate(-542.000000, -1617.000000)">
					<g id="Group-54" transform="translate(190.000000, 1327.000000)">
						<g id="Page-1" transform="translate(353.000000, 291.000000)">
							<path id="Stroke-1" class="st010" d="M45.3,46.2c-0.2,1.6-1.4,2.8-2.8,2.6c-1.4-0.2-2.3-1.7-2.2-3.4c0.2-1.6,1.4-2.8,2.8-2.6
							C44.5,43.1,45.5,44.6,45.3,46.2z"/>
							<path id="Stroke-3" class="st010" d="M56.3,42.2c-0.2,1.6-1.4,2.8-2.8,2.6c-1.4-0.2-2.3-1.7-2.2-3.4c0.2-1.6,1.4-2.8,2.8-2.6
							C55.5,39.1,56.5,40.6,56.3,42.2z"/>
							<path id="Stroke-5" class="st010" d="M67.3,38.2c-0.2,1.6-1.4,2.8-2.8,2.6c-1.4-0.2-2.3-1.7-2.2-3.4c0.2-1.6,1.4-2.8,2.8-2.6
							C66.5,35.1,67.5,36.6,67.3,38.2z"/>
							<path id="Stroke-7" class="st010" d="M79.3,33.2c-0.2,1.6-1.4,2.8-2.8,2.6s-2.3-1.7-2.2-3.4c0.2-1.6,1.4-2.8,2.8-2.6
							C78.5,30.1,79.5,31.6,79.3,33.2z"/>
							<path id="Stroke-9" class="st010" d="M92.3,29.2c-0.2,1.6-1.7,2.8-3.4,2.6c-1.6-0.2-2.8-1.7-2.6-3.4c0.2-1.6,1.7-2.8,3.4-2.6
							C91.3,26.1,92.5,27.6,92.3,29.2z"/>
							<path id="Stroke-11" class="st010" d="M57.3,22.1c0,0-21.1-9.8-27.2-10.2c-6-0.4-5.2,4-3.7,5.4S38,28.9,38,28.9L57.3,22.1z"/>
							<path id="Stroke-13" class="st010" d="M50.4,53.6l-2.7,21.1c0,0-1.4,4.8,2.8,4.1c4.3-0.6,8.5-7.4,22.6-32.5l35-14.8
							c0,0,9.4-2.9,6.6-8.4s-10.4-9.6-25.7-5.6C73.8,21.5,25.9,39,25.9,39S12.2,34,10,34.2s-12.8,2.3-8.8,6.9
							c3.9,4.6,16.4,20.2,25.7,18.6C36.1,58.2,50.4,53.6,50.4,53.6z"/>
						</g>
					</g>
				</g>
			</g>
			<line class="st010" x1="32.6" y1="77.2" x2="80.3" y2="0.3"/>
		</svg>