<svg class="services--icon" version="1.1" width="101px" height="68px" id="Layer_1" xmlns="http://www.w3.org/2000/svg" xmlns:xlink="http://www.w3.org/1999/xlink" x="0px" y="0px"
				viewBox="0 0 105.4 67.5" style="enable-background:new 0 0 105.4 67.5;" xml:space="preserve">
				<style type="text/css">
					.st02{fill:none;stroke:#D2B271;stroke-width:1.806;stroke-linecap:round;}
					.st11{fill:#D2B271;}
				</style>
				<g id="Page-1_20_" transform="translate(51.000000, 285.000000)">
					<path id="Stroke-1_4_" class="st02" d="M44.5-230.6c0,1.5-1.3,2.8-2.8,2.8h-63.2c-1.5,0-2.8-1.2-2.8-2.8v-28.5
					c0-1.5,1.3-2.8,2.8-2.8h63.2c1.5,0,2.8,1.2,2.8,2.8V-230.6z M-30.1-270.3c-1.5,0-2.8,1.2-2.8,2.8v45.5c0,1.5,1.3,2.8,2.8,2.8h80.4
					c1.5,0,2.8-1.2,2.8-2.8v-45.5c0-1.5-1.3-2.8-2.8-2.8H-30.1z M10.1-257.6c-7.1,0-12.9,5.7-12.9,12.7c0,7,5.8,12.8,12.9,12.8
					c7.1,0,12.9-5.7,12.9-12.8C23-251.9,17.2-257.6,10.1-257.6z"/>
					<g id="Group-7">
						<polyline id="Stroke-3_4_" class="st02" points="44,-276.6 -39.7,-276.6 -39.7,-226.5 		"/>
						<polyline id="Stroke-5_4_" class="st02" points="35.4,-282.5 -48.3,-282.5 -48.3,-232 		"/>
					</g>
				</g>
				<g>
					<path class="st11" d="M62.9,49.3h-2.2V35c-0.5,0.5-1.2,1-2.1,1.5c-0.9,0.5-1.7,0.9-2.4,1.2v-2.2c1.3-0.6,2.3-1.3,3.3-2.1
					c0.9-0.8,1.6-1.7,2-2.4h1.4V49.3z"/>
				</g>
			</svg>