<svg class="services--icon" width="88px" height="84px" viewBox="0 0 88 84" version="1.1" xmlns="http://www.w3.org/2000/svg" xmlns:xlink="http://www.w3.org/1999/xlink">
					<g id="Page-1" stroke="none" stroke-width="1" fill="none" fill-rule="evenodd">
						<g id="Desktop" transform="translate(-1142.000000, -1334.000000)" stroke="#DAB578">
							<g id="Group-54" transform="translate(190.000000, 1327.000000)">
								<g id="Page-1" transform="translate(953.000000, 8.000000)">
									<path d="M77,45.5924668 C77,43.065954 74.9486252,41 72.4413893,41 L36.5586107,41 C34.0513748,41 32,43.065954 32,45.5924668 L32,70.4075332 C32,72.934046 34.0513748,75 36.5586107,75 L72.4413893,75 C74.9486252,75 77,72.934046 77,70.4075332 L77,45.5924668 Z" id="Stroke-1" stroke-width="1.581"></path>
									<path d="M41.2224426,34 L80.7103489,34 C83.619657,34 86,36.3693953 86,39.2653229 L86,76.7346771 C86,79.6306047 83.619657,82 80.7103489,82 L29.2896511,82 C26.380343,82 24,79.6306047 24,76.7346771 L24,39.2653229 C24,36.3693953 26.3254628,34 29.1666667,34 L34.3333333,34" id="Stroke-3" stroke-width="1.806"></path>
									<path d="M52.0165002,66 L58.0720657,66 L58.0720657,59.1728837 C58.057914,59.2002455 61.7905845,56.1757596 60.8471401,52.7181555 C60.3477884,50.8855786 59.2446323,48.230144 55.274079,48.0099144 C51.3621541,47.7930217 49.1497769,51.1818875 49.0089341,53.5530257 C48.8687652,55.924164 50.4005146,58.121788 52.0165002,59.1728837 L52.0165002,66 Z" id="Stroke-5" stroke-width="1.806"></path>
									<path d="M0.553927509,34 C0.553927509,34 0.252506335,22.763286 0.795196651,18.2283702 C1.33722596,13.6928098 2.26792993,12.5361935 4.48628401,8.59054601 C6.7046381,4.64425382 13.342514,1.57283804 13.342514,1.57283804 C13.342514,1.57283804 21.9059161,-2.56751296 31.4317506,2.5869726 C40.9569241,7.74210286 42,18.1497152 42,18.1497152 L42,33.1638064 L42,34 L35.1135838,34 L35.1135838,19.208335 C35.1135838,19.208335 34.6859094,12.496866 28.599978,8.83747134 C22.5140465,5.17807672 17.1790239,7.42425904 17.1790239,7.42425904 C17.1790239,7.42425904 12.9049245,8.99542618 10.7658918,11.6864609 C8.62685909,14.3774956 7.76423929,18.1000722 7.76423929,18.1000722 L7.56593588,20.3939633 L7.56593588,34 L0,34 L0.553927509,34" id="Stroke-7" stroke-width="1.806"></path>
								</g>
							</g>
						</g>
					</g>
				</svg>