<svg width="101px" height="88px" class="services--icon" version="1.1" id="Layer_1" xmlns="http://www.w3.org/2000/svg" xmlns:xlink="http://www.w3.org/1999/xlink" x="0px" y="0px"
					viewBox="0 0 97.8 99.7" style="enable-background:new 0 0 97.8 99.7;" xml:space="preserve">
					<style type="text/css">
						.st01{fill:none;stroke:#D2B271;stroke-width:1.806;stroke-linecap:round;stroke-linejoin:round;}
					</style>
					<g id="Page-1_21_">
						<g id="Desktop_13_" transform="translate(-843.000000, -1326.000000)">
							<g id="Group-54_3_" transform="translate(190.000000, 1327.000000)">
								<g id="Page-1_22_" transform="translate(654.000000, 0.000000)">
									<path id="Stroke-1_3_" class="st01" d="M61,41.8h4.6c0,0,1.9-0.2,1-2.3c0,0-2.9-1.7-4.5-3.5c0,0-3.3-3.3-6.4-3.1
									C52.6,33.2,43,32.8,43,32.8s-2.6,0.1-4.3,1.4l-7.9,5.4c0,0-2.2,2.1-0.1,2.1c2.1,0,25.6,0.1,25.6,0.1L61,41.8z"/>
									<path id="Stroke-7_4_" class="st01" d="M71.4,49.9c0,0,2.4-0.7,3-1.6c1.3-2,0-9.4,0-9.4s0.6-2.3-6.1-3.7c0,0-2-0.3-6-3.7
									c0,0-3.1-2.6-6.6-2.6c-3.5,0.1-13.8,0-13.8,0s-2.6-0.1-6.8,2.8c-4.2,2.9-6.7,4.4-6.7,4.4s-2.4,1-4.3,1.3l-7.4,1.4
									c0,0-3.9,1.1-4.7,4.5v5.6c0,0-0.1,1.7,1.6,2.1h3.5"/>
									<path id="Stroke-11_2_" class="st01" d="M16.9,51.8c0,3.3,2.7,6,6,6c3.3,0,6-2.7,6-6c0-3.3-2.7-6-6-6
									C19.6,45.8,16.9,48.5,16.9,51.8z"/>
									<path id="Stroke-15_1_" class="st01" d="M58.9,51.8c0,3.3,2.7,6,6,6c3.3,0,6-2.7,6-6c0-3.3-2.7-6-6-6
									C61.6,45.8,58.9,48.5,58.9,51.8z"/>
									<path id="Stroke-17_1_" class="st01" d="M58.9,50.8h-30"/>
									<path id="Stroke-19_1_" class="st01" d="M7.9,43.3c0,19.6,16.1,35.5,36,35.5s36-15.9,36-35.5S63.8,7.8,43.9,7.8
									S7.9,23.7,7.9,43.3z"/>
									<path id="Stroke-21_1_" class="st01" d="M93.7,95.6c1.6-1.6,1.6-4.4-0.1-6L79.2,75.2c-1.7-1.7-2.1-4.7-0.8-6.8
									c0,0,8.5-13.8,8.5-24.7c0-23.7-19.3-42.9-43-42.9S0.9,20,0.9,43.7s19.3,42.9,43,42.9c9.8,0,22.2-6.7,22.2-6.7
									c2.1-1.1,5.2-0.7,6.9,1l14.6,14.6C89.3,97.2,92.1,97.3,93.7,95.6z"/>
								</g>
							</g>
						</g>
					</g>
				</svg>