<svg width="101px" height="68px" class="services--icon" version="1.1" id="Layer_1" xmlns="http://www.w3.org/2000/svg" xmlns:xlink="http://www.w3.org/1999/xlink" x="0px" y="0px"
						viewBox="0 0 72 74.4" style="enable-background:new 0 0 72 74.4;" xml:space="preserve">
						<style type="text/css">
							.st0{fill:none;stroke:#D2B271;stroke-width:1.806;}
						</style>
						<g>
							<g id="Page-1_13_">
								<g id="Desktop_10_" transform="translate(-265.000000, -1348.000000)">
									<g id="Group-54_6_" transform="translate(190.000000, 1327.000000)">
										<g id="Page-1_16_" transform="translate(76.000000, 22.000000)">
											<polyline id="Stroke-1_6_" class="st0" points="13.4,43 13.4,11.3 13.4,11.7 					"/>
											<g id="Group-18_1_">
												<path id="Stroke-4_1_" class="st0" d="M18,11.3h38.6"/>
												<path id="Stroke-6_1_" class="st0" d="M56.6,11.8v31"/>
												<path id="Stroke-14_1_" class="st0" d="M28.4,57.4h13.2"/>
												<path id="Stroke-16_1_" class="st0" d="M39.3,53.8h-8.2c-1.3,0-2.3-1.1-2.3-2.4v-1.7c0-1.3,1-2.4,2.3-2.4h8.2
												c1.3,0,2.3,1.1,2.3,2.4v1.7C41.6,52.7,40.5,53.8,39.3,53.8z"/>
											</g>
										</g>
									</g>
								</g>
							</g>
							<path class="st0" d="M25.4,55.9H4.6c-1.6,0-2.9-1.3-2.9-2.9V15.2c0-1.6,1.3-2.9,2.9-2.9h62.8c1.6,0,2.9,1.3,2.9,2.9V53
							c0,1.6-1.3,2.9-2.9,2.9H45.8"/>
							<path class="st0" d="M67.2,55.9v14.2c0,1.5-1.2,2.8-2.8,2.8H7.5c-1.5,0-2.8-1.2-2.8-2.8V55.9"/>
							<path class="st0" d="M25.4,12.3v-6c0-2.7,2.2-4.8,4.8-4.8h11.5c2.7,0,4.8,2.2,4.8,4.8v6"/>
						</g>
					</svg>