<svg class="services--icon" width="101px" height="68px" viewBox="0 0 101 68" version="1.1" xmlns="http://www.w3.org/2000/svg" xmlns:xlink="http://www.w3.org/1999/xlink">
						<g id="Page-1" stroke="none" stroke-width="1" fill="none" fill-rule="evenodd">
							<g id="Desktop" transform="translate(-540.000000, -1341.000000)" stroke="#DAB578" stroke-width="1.806">
								<g id="Group-54" transform="translate(190.000000, 1327.000000)">
									<path d="M367.5,56.2503709 L404.624815,56.2503709 L404.624815,52.1248145 L367.5,52.1248145 L367.5,56.2503709 Z M359.250371,25.3120363 C359.250371,24.174003 360.174003,23.2496291 361.312778,23.2496291 L431.437593,23.2496291 C432.576368,23.2496291 433.5,24.174003 433.5,25.3120363 L433.5,31.5 L359.250371,31.5 L359.250371,25.3120363 Z M361.312778,72.7503709 C360.174003,72.7503709 359.250371,71.8252552 359.250371,70.6872218 L359.250371,43.8751855 L419.207073,43.8751855 C422.642687,38.4417068 428.669664,34.7998516 435.562407,34.7998516 C437.736837,34.7998516 439.794793,35.2412661 441.750371,35.9052426 L441.750371,23.2496291 C441.750371,18.6960119 438.053617,15 433.5,15 L359.250371,15 C354.696012,15 351,18.6960119 351,23.2496291 L351,72.7503709 C351,77.3039881 354.696012,81 359.250371,81 L433.5,81 C438.053617,81 441.750371,77.3039881 441.750371,72.7503709 L361.312778,72.7503709 Z M367.5,64.4992581 L392.249629,64.4992581 L392.249629,60.3744436 L367.5,60.3744436 L367.5,64.4992581 Z M450,54.1872218 C450,62.1608741 443.53606,68.6248145 435.562407,68.6248145 C427.588755,68.6248145 421.124815,62.1608741 421.124815,54.1872218 C421.124815,46.2135695 427.588755,39.7496291 435.562407,39.7496291 C443.53606,39.7496291 450,46.2135695 450,54.1872218 Z M425.250371,54.1872218 C425.250371,59.8714536 429.878175,64.4992581 435.562407,64.4992581 C441.246639,64.4992581 445.875185,59.8714536 445.875185,54.1872218 C445.875185,48.50299 441.246639,43.8751855 435.562407,43.8751855 C429.878175,43.8751855 425.250371,48.50299 425.250371,54.1872218 Z M429.375185,56.2496291 L441.750371,56.2496291 L441.750371,52.1240727 L429.375185,52.1240727 L429.375185,56.2496291 Z" id="Page-1"></path>
								</g>
							</g>
						</g>
					</svg>